<svg width="25" height="25" viewBox="0 0 25 25" fill="none" xmlns="http://www.w3.org/2000/svg">
<path d="M12 7.5V7C12 6.17157 11.3284 5.5 10.5 5.5C9.67157 5.5 9 4.82843 9 4V3" stroke="#4AAFD5" stroke-width="1.5" stroke-linecap="round"/>
<path opacity="0.3" d="M17 7.25C20.1756 7.25 22.75 9.82436 22.75 13V17C22.75 20.1756 20.1756 22.75 17 22.75H7C3.82436 22.75 1.25 20.1756 1.25 17V13C1.25 9.82436 3.82436 7.25 7 7.25H17Z" fill="#4AAFD5"/>
<circle cx="18" cy="13.5" r="1" fill="#4AAFD5"/>
<circle cx="16" cy="16.5" r="1" fill="#4AAFD5"/>
<path d="M8.33325 17.7082L8.33325 13.5415" stroke="#4AAFD5" stroke-width="1.5" stroke-linecap="round" stroke-linejoin="round"/>
<path d="M6.25008 15.625H10.4167" stroke="#4AAFD5" stroke-width="1.5" stroke-linecap="round" stroke-linejoin="round"/>
</svg>
