<svg width="30" height="30" viewBox="0 0 30 30" fill="none" xmlns="http://www.w3.org/2000/svg">
<path d="M10.4508 0.986714C7.45332 2.02656 4.86831 4.00023 3.07545 6.61781C1.28259 9.2354 0.376388 12.3589 0.489945 15.5296C0.603502 18.7003 1.73083 21.751 3.70635 24.2336C5.68187 26.7162 8.40145 28.4999 11.4656 29.3227C13.9498 29.9637 16.5525 29.9918 19.05 29.4047C21.3125 28.8965 23.4042 27.8094 25.1203 26.25C26.9064 24.5774 28.2029 22.4496 28.8703 20.0953C29.5958 17.5352 29.7248 14.8428 29.2477 12.225H15.2977V18.0117H23.3766C23.2151 18.9347 22.8691 19.8155 22.3593 20.6016C21.8494 21.3877 21.1862 22.0629 20.4094 22.5867C19.4229 23.2393 18.3108 23.6784 17.1445 23.8758C15.9749 24.0933 14.7751 24.0933 13.6055 23.8758C12.42 23.6307 11.2985 23.1414 10.3125 22.4391C8.72848 21.3178 7.53909 19.7248 6.91407 17.8875C6.27847 16.0158 6.27847 13.9866 6.91407 12.1148C7.35897 10.8028 8.09446 9.60828 9.06563 8.62031C10.177 7.46893 11.5841 6.64593 13.1324 6.24158C14.6807 5.83723 16.3105 5.86718 17.843 6.32812C19.0401 6.6956 20.1348 7.33766 21.0398 8.20312C21.9508 7.29687 22.8602 6.38828 23.768 5.47734C24.2367 4.9875 24.7477 4.52109 25.2094 4.01953C23.8279 2.73392 22.2063 1.73357 20.4375 1.07578C17.2165 -0.0937783 13.6921 -0.125209 10.4508 0.986714Z" fill="white"/>
<path d="M10.4508 0.986724C13.6919 -0.125955 17.2162 -0.0953515 20.4375 1.07344C22.2066 1.7357 23.8275 2.74088 25.207 4.03126C24.7383 4.53282 24.2438 5.00157 23.7656 5.48907C22.8563 6.39688 21.9477 7.30157 21.0398 8.20313C20.1348 7.33767 19.0401 6.69561 17.843 6.32813C16.311 5.86557 14.6813 5.8339 13.1326 6.23659C11.5838 6.63928 10.1759 7.46077 9.06329 8.61094C8.09212 9.59892 7.35663 10.7935 6.91172 12.1055L2.05313 8.34375C3.79221 4.89507 6.80332 2.25709 10.4508 0.986724Z" fill="#E33629"/>
<path d="M0.764068 12.0703C1.02521 10.7761 1.45876 9.52272 2.05313 8.34375L6.91172 12.1148C6.27613 13.9866 6.27613 16.0158 6.91172 17.8875C5.29297 19.1375 3.67344 20.3938 2.05313 21.6562C0.565202 18.6945 0.11141 15.3199 0.764068 12.0703Z" fill="#F8BD00"/>
<path d="M15.2976 12.2227H29.2476C29.7248 14.8405 29.5957 17.5328 28.8703 20.093C28.2029 22.4472 26.9064 24.575 25.1203 26.2477C23.5523 25.0242 21.9773 23.8102 20.4094 22.5867C21.1867 22.0624 21.8502 21.3865 22.3601 20.5995C22.8699 19.8126 23.2157 18.9308 23.3765 18.007H15.2976C15.2953 16.0805 15.2976 14.1516 15.2976 12.2227Z" fill="#587DBD"/>
<path d="M2.05078 21.6562C3.67109 20.4062 5.29062 19.15 6.90937 17.8875C7.53564 19.7255 8.72673 21.3185 10.3125 22.4391C11.3016 23.1381 12.4255 23.6234 13.6125 23.8641C14.7822 24.0815 15.9819 24.0815 17.1516 23.8641C18.3178 23.6666 19.4299 23.2276 20.4164 22.575C21.9844 23.7984 23.5594 25.0125 25.1273 26.2359C23.4115 27.7962 21.3197 28.8841 19.057 29.393C16.5596 29.9801 13.9569 29.9519 11.4727 29.3109C9.50789 28.7863 7.67268 27.8615 6.08203 26.5945C4.39842 25.2579 3.02333 23.5734 2.05078 21.6562Z" fill="#319F43"/>
</svg>
