<svg width="25" height="25" viewBox="0 0 25 25" fill="none" xmlns="http://www.w3.org/2000/svg">
<path opacity="0.3" d="M19.6716 1.63623C21.2855 1.42516 22.6161 2.75577 22.405 4.36963C22.0965 6.72855 21.2485 10.7351 18.8533 13.3179C18.0912 14.1396 17.17 14.8982 16.2234 15.5728L16.5007 17.5112C16.5785 18.0564 16.395 18.6062 16.0056 18.9956L12.824 22.1782C11.8043 23.1976 10.0584 22.6153 9.85425 21.188L9.42944 18.2183L9.43433 18.2173C9.16258 18.0861 8.90965 17.9103 8.69019 17.6909L6.35034 15.3511C6.13081 15.1314 5.95516 14.878 5.82397 14.606L5.823 14.6118L2.85327 14.188C1.42591 13.9838 0.844383 12.2369 1.86401 11.2173L5.04565 8.03564C5.43505 7.64634 5.98493 7.46375 6.53003 7.5415L8.46753 7.81787C9.14208 6.87127 9.90173 5.95005 10.7234 5.18799C13.3061 2.79281 17.3127 1.94478 19.6716 1.63623Z" fill="#4AAFD5"/>
<path d="M5.92918 18.112L3.10075 20.9405M3.80786 15.9907L2.39365 17.4049M8.0505 20.2334L6.63629 21.6476" stroke="#4AAFD5" stroke-width="1.5" stroke-linecap="round"/>
<path d="M13.7071 7.50552C12.9261 8.28657 12.9261 9.5529 13.7071 10.3339C14.4882 11.115 15.7545 11.115 16.5356 10.3339C17.3166 9.5529 17.3166 8.28657 16.5356 7.50552C15.7545 6.72447 14.4882 6.72447 13.7071 7.50552Z" fill="#4AAFD5"/>
</svg>
