<svg width="121" height="62" viewBox="0 0 121 62" fill="none" xmlns="http://www.w3.org/2000/svg">
<path d="M14.3 33.592V38.168H7.072V40.716H12.272V45.058H7.072V52H1.3V33.592H14.3ZM23.2231 52.182C21.7497 52.182 20.4237 51.8787 19.2451 51.272C18.0664 50.6653 17.1391 49.7987 16.4631 48.672C15.8044 47.528 15.4751 46.1933 15.4751 44.668C15.4751 43.1427 15.8044 41.8167 16.4631 40.69C17.1391 39.546 18.0664 38.6707 19.2451 38.064C20.4237 37.4573 21.7497 37.154 23.2231 37.154C24.6964 37.154 26.0224 37.4573 27.2011 38.064C28.3797 38.6707 29.2984 39.546 29.9571 40.69C30.6331 41.8167 30.9711 43.1427 30.9711 44.668C30.9711 46.1933 30.6331 47.528 29.9571 48.672C29.2984 49.7987 28.3797 50.6653 27.2011 51.272C26.0224 51.8787 24.6964 52.182 23.2231 52.182ZM23.2231 47.19C23.7604 47.19 24.2111 46.982 24.5751 46.566C24.9391 46.1327 25.1211 45.5 25.1211 44.668C25.1211 43.836 24.9391 43.212 24.5751 42.796C24.2111 42.3627 23.7604 42.146 23.2231 42.146C22.6857 42.146 22.2351 42.3627 21.8711 42.796C21.5071 43.212 21.3251 43.836 21.3251 44.668C21.3251 45.5 21.4984 46.1327 21.8451 46.566C22.2091 46.982 22.6684 47.19 23.2231 47.19ZM32.0044 44.668C32.0044 43.1427 32.3164 41.8167 32.9404 40.69C33.5817 39.546 34.4657 38.6707 35.5924 38.064C36.7364 37.4573 38.0364 37.154 39.4924 37.154C41.399 37.154 43.0024 37.6913 44.3024 38.766C45.6197 39.8407 46.4517 41.3313 46.7984 43.238H40.6884C40.463 42.4753 40.021 42.094 39.3624 42.094C38.8944 42.094 38.5217 42.3107 38.2444 42.744C37.9844 43.1773 37.8544 43.8187 37.8544 44.668C37.8544 45.5173 37.9844 46.1587 38.2444 46.592C38.5217 47.0253 38.8944 47.242 39.3624 47.242C40.021 47.242 40.463 46.8607 40.6884 46.098H46.7984C46.4517 48.0047 45.6197 49.4953 44.3024 50.57C43.0024 51.6447 41.399 52.182 39.4924 52.182C38.0364 52.182 36.7364 51.8787 35.5924 51.272C34.4657 50.6653 33.5817 49.7987 32.9404 48.672C32.3164 47.528 32.0044 46.1933 32.0044 44.668ZM64.1501 37.336V52H58.3781V49.764C57.9275 50.4573 57.3208 51.0207 56.5581 51.454C55.8128 51.8873 54.9201 52.104 53.8801 52.104C52.1988 52.104 50.8815 51.5407 49.9281 50.414C48.9921 49.2873 48.5241 47.762 48.5241 45.838V37.336H54.2701V45.11C54.2701 45.8033 54.4521 46.358 54.8161 46.774C55.1975 47.1727 55.7001 47.372 56.3241 47.372C56.9655 47.372 57.4681 47.1727 57.8321 46.774C58.1961 46.358 58.3781 45.8033 58.3781 45.11V37.336H64.1501ZM73.283 52.182C71.8964 52.182 70.6657 51.9567 69.591 51.506C68.5337 51.0553 67.693 50.4313 67.069 49.634C66.445 48.8367 66.0897 47.9353 66.003 46.93H71.541C71.6104 47.3633 71.7924 47.684 72.087 47.892C72.399 48.1 72.789 48.204 73.257 48.204C73.5517 48.204 73.7857 48.1433 73.959 48.022C74.1324 47.8833 74.219 47.7187 74.219 47.528C74.219 47.1987 74.037 46.9647 73.673 46.826C73.309 46.6873 72.6937 46.5313 71.827 46.358C70.7697 46.15 69.8944 45.9247 69.201 45.682C68.525 45.4393 67.927 45.0233 67.407 44.434C66.9044 43.8447 66.653 43.03 66.653 41.99C66.653 41.0887 66.887 40.274 67.355 39.546C67.8404 38.8007 68.551 38.22 69.487 37.804C70.423 37.3707 71.5584 37.154 72.893 37.154C74.869 37.154 76.4117 37.6393 77.521 38.61C78.6477 39.5807 79.3237 40.846 79.549 42.406H74.427C74.3404 42.0073 74.1584 41.704 73.881 41.496C73.6037 41.2707 73.231 41.158 72.763 41.158C72.4684 41.158 72.243 41.2187 72.087 41.34C71.931 41.444 71.853 41.6087 71.853 41.834C71.853 42.1287 72.035 42.354 72.399 42.51C72.763 42.6487 73.3437 42.796 74.141 42.952C75.1984 43.16 76.091 43.394 76.819 43.654C77.547 43.914 78.1797 44.3647 78.717 45.006C79.2544 45.63 79.523 46.4967 79.523 47.606C79.523 48.4727 79.2717 49.2527 78.769 49.946C78.2664 50.6393 77.5384 51.1853 76.585 51.584C75.649 51.9827 74.5484 52.182 73.283 52.182Z" fill="#4AAFD5"/>
<path opacity="0.23" d="M83 48.3045C88.775 51.0826 91.6625 31.9138 91.6625 41.9149C91.6625 51.916 101.975 34.1363 99.9125 48.3045C97.85 62.4727 111.463 30.5247 108.988 41.9149C106.513 53.3051 114.35 44.4151 116 48.3045" stroke="#333333" stroke-width="3" stroke-linecap="round"/>
<path d="M86.062 12.446C86.5473 12.5153 86.8767 12.6627 87.05 12.888C87.2407 13.1133 87.336 13.408 87.336 13.772C87.336 14.968 86.6947 15.5227 85.412 15.436L84.502 15.358C83.4793 15.2713 82.4567 15.202 81.434 15.15C80.4287 15.098 79.3713 15.072 78.262 15.072H77.092C76.884 17.6373 76.6673 19.9773 76.442 22.092L80.914 22.014C81.5553 22.014 81.98 22.1267 82.188 22.352C82.4133 22.5773 82.526 22.8807 82.526 23.262C82.526 23.8513 82.3527 24.3193 82.006 24.666C81.6593 24.9953 81.1653 25.16 80.524 25.16H76.078L75.922 26.278C75.558 29.138 74.778 31.1747 73.582 32.388C72.4033 33.6013 70.774 34.208 68.694 34.208C67.5153 34.208 66.432 33.9567 65.444 33.454C64.456 32.934 63.728 32.31 63.26 31.582C63.0693 31.2873 62.974 30.932 62.974 30.516C62.974 30.1 63.0693 29.736 63.26 29.424C63.468 29.112 63.7193 28.956 64.014 28.956C64.222 28.956 64.4213 29.0253 64.612 29.164C64.82 29.3027 65.08 29.5713 65.392 29.97C66.224 31.062 67.2553 31.608 68.486 31.608C69.474 31.608 70.2973 31.2093 70.956 30.412C71.632 29.5973 72.0653 28.3233 72.256 26.59L72.412 25.16H71.164C70.7653 25.16 70.4187 25.0473 70.124 24.822C69.8467 24.5967 69.708 24.276 69.708 23.86C69.708 23.3227 69.8467 22.9153 70.124 22.638C70.4013 22.3433 70.8087 22.196 71.346 22.196C71.8313 22.196 72.308 22.1873 72.776 22.17C72.984 20.2633 73.2093 17.9493 73.452 15.228C71.58 15.4013 70.2627 15.7047 69.5 16.138C68.7373 16.5713 68.356 17.2127 68.356 18.062C68.356 18.6513 68.5293 19.2147 68.876 19.752C68.98 19.908 69.032 20.064 69.032 20.22C69.032 20.532 68.8587 20.8093 68.512 21.052C68.1653 21.2773 67.7753 21.39 67.342 21.39C66.874 21.39 66.4753 21.2513 66.146 20.974C65.938 20.8007 65.7387 20.4453 65.548 19.908C65.3573 19.3707 65.262 18.7727 65.262 18.114C65.262 15.9647 66.3627 14.4047 68.564 13.434C70.7827 12.4633 74.0153 11.978 78.262 11.978C81.2087 11.978 83.8087 12.134 86.062 12.446ZM92.6118 28.202C92.8371 28.202 93.0104 28.306 93.1318 28.514C93.2704 28.722 93.3398 29.008 93.3398 29.372C93.3398 30.0653 93.1751 30.6027 92.8458 30.984C92.1004 31.9027 91.2858 32.6567 90.4018 33.246C89.5351 33.8353 88.5471 34.13 87.4378 34.13C85.9124 34.13 84.7771 33.4367 84.0318 32.05C83.3038 30.6633 82.9398 28.8693 82.9398 26.668C82.9398 24.5533 83.2084 22.144 83.7458 19.44C84.3004 16.736 85.1064 14.4133 86.1638 12.472C87.2384 10.5307 88.5124 9.56 89.9858 9.56C90.8178 9.56 91.4678 9.95 91.9358 10.73C92.4211 11.4927 92.6638 12.5933 92.6638 14.032C92.6638 16.0947 92.0918 18.4867 90.9478 21.208C89.8038 23.9293 88.2524 26.6247 86.2938 29.294C86.4151 30.0047 86.6144 30.516 86.8918 30.828C87.1691 31.1227 87.5331 31.27 87.9838 31.27C88.6944 31.27 89.3184 31.0707 89.8558 30.672C90.3931 30.256 91.0778 29.554 91.9098 28.566C92.1178 28.3233 92.3518 28.202 92.6118 28.202ZM89.4138 12.134C89.0151 12.134 88.5644 12.8533 88.0618 14.292C87.5591 15.7307 87.1171 17.516 86.7358 19.648C86.3544 21.78 86.1464 23.8253 86.1118 25.784C87.3424 23.756 88.3218 21.728 89.0498 19.7C89.7778 17.6547 90.1418 15.7913 90.1418 14.11C90.1418 12.7927 89.8991 12.134 89.4138 12.134ZM104.498 26.018C104.724 26.018 104.897 26.1307 105.018 26.356C105.14 26.5813 105.2 26.8673 105.2 27.214C105.2 28.046 104.949 28.54 104.446 28.696C103.406 29.06 102.262 29.268 101.014 29.32C100.685 30.776 100.035 31.946 99.0642 32.83C98.0936 33.6967 96.9929 34.13 95.7622 34.13C94.7222 34.13 93.8296 33.8787 93.0842 33.376C92.3562 32.8733 91.8016 32.206 91.4202 31.374C91.0389 30.542 90.8482 29.6407 90.8482 28.67C90.8482 27.3527 91.0996 26.1827 91.6022 25.16C92.1049 24.12 92.7982 23.314 93.6822 22.742C94.5662 22.1527 95.5456 21.858 96.6202 21.858C97.9376 21.858 98.9949 22.3173 99.7922 23.236C100.607 24.1373 101.084 25.2553 101.222 26.59C102.037 26.538 103.008 26.3647 104.134 26.07C104.273 26.0353 104.394 26.018 104.498 26.018ZM95.9702 31.374C96.5249 31.374 97.0016 31.1487 97.4002 30.698C97.8162 30.2473 98.0936 29.5973 98.2322 28.748C97.6949 28.384 97.2789 27.9073 96.9842 27.318C96.7069 26.7287 96.5682 26.1047 96.5682 25.446C96.5682 25.1687 96.5942 24.8913 96.6462 24.614H96.5162C95.8229 24.614 95.2422 24.952 94.7742 25.628C94.3236 26.2867 94.0982 27.2227 94.0982 28.436C94.0982 29.3893 94.2802 30.1173 94.6442 30.62C95.0256 31.1227 95.4676 31.374 95.9702 31.374ZM118.797 21.858C119.75 21.858 120.227 22.1613 120.227 22.768C120.227 22.976 120.157 23.262 120.019 23.626C118.615 26.902 117.289 29.5453 116.041 31.556C115.417 32.544 114.853 33.22 114.351 33.584C113.848 33.948 113.276 34.13 112.635 34.13C111.941 34.13 111.421 33.8613 111.075 33.324C110.745 32.7867 110.537 31.9027 110.451 30.672C110.416 30.2213 110.381 29.5453 110.347 28.644C109.809 30.1347 109.315 31.2787 108.865 32.076C108.431 32.856 107.998 33.3933 107.565 33.688C107.149 33.9827 106.646 34.13 106.057 34.13C105.346 34.13 104.783 33.8527 104.367 33.298C103.968 32.7433 103.717 31.868 103.613 30.672C103.405 28.2453 103.301 26.122 103.301 24.302V23.392C103.318 22.8027 103.465 22.404 103.743 22.196C104.02 21.9707 104.471 21.858 105.095 21.858C105.545 21.858 105.875 21.962 106.083 22.17C106.308 22.3607 106.421 22.69 106.421 23.158C106.421 25.1513 106.542 27.7427 106.785 30.932C107.357 29.7187 107.885 28.5573 108.371 27.448C108.856 26.3387 109.419 24.9173 110.061 23.184C110.251 22.664 110.477 22.3173 110.737 22.144C111.014 21.9533 111.335 21.858 111.699 21.858C112.184 21.858 112.548 21.962 112.791 22.17C113.033 22.3607 113.155 22.69 113.155 23.158V27.188C113.155 28.9213 113.163 30.1693 113.181 30.932C113.978 29.5453 114.628 28.3407 115.131 27.318C115.651 26.2953 116.231 24.9173 116.873 23.184C117.063 22.664 117.315 22.3173 117.627 22.144C117.939 21.9533 118.329 21.858 118.797 21.858Z" fill="#E7A339"/>
<path d="M4.58163 21L2 31H13L10.0816 21L7.44388 24.7363L4.58163 21Z" stroke="#E7A339" stroke-width="2"/>
</svg>
